<?xml version="1.0" encoding="utf-8"?>
<!-- Generator: Adobe Illustrator 16.0.0, SVG Export Plug-In . SVG Version: 6.00 Build 0)  -->
<!DOCTYPE svg PUBLIC "-//W3C//DTD SVG 1.1//EN" "http://www.w3.org/Graphics/SVG/1.1/DTD/svg11.dtd">
<svg version="1.1" id="Layer_2" xmlns="http://www.w3.org/2000/svg" xmlns:xlink="http://www.w3.org/1999/xlink" x="0px" y="0px"
	 width="13440px" height="3010px" viewBox="0 0 13440 3010" enable-background="new 0 0 13440 3010" xml:space="preserve">
<g id="XMLID_1459_" opacity="0.56">
	<path id="XMLID_1462_" opacity="0.08" fill="#FFFFFF" enable-background="new    " d="M9.348,323.811
		c0,0,802.064,1262.478,2959.08,1401.656c1090.175,70.093,2169.654-151.846,2827.636-575.268
		c658.002-423.411,1755.006-944.173,3458.407-944.173c1776.43,0,1895.181,885.786,2833.51,914.969
		c1278.059,39.924,1322.813-219.97,1322.813-219.97v589.86c0,0-220.956-276.433-996.721-100.261
		c-1220.632,277.418-1011.357,725.167-1954.541,564.57c-1935.084-329.987-1413.368-310.517-4376.313,207.325
		c-2008.08,351.382-3861.383-151.846-4623.532-166.438C697.524,1981.466,7.404,2583.994,7.404,2583.994L9.348,323.811z"/>
	<path id="XMLID_1461_" opacity="0.08" fill="#FFFFFF" enable-background="new    " d="M-2.335,2499.309V1030.491
		c0,0,444.843,386.428,1039.578,309.532c594.712-76.896,1278.036-776.762,3272.479-777.736
		c1353.009,0,1917.559,407.845,2908.461,772.857c990.901,365.011,1306.265,442.892,2390.61,442.892
		c1084.331,0,1519.438-577.215,2079.134-618.103c559.686-40.887,1742.333,552.888,1742.333,552.888v683.317
		c0,0-964.605-701.825-2696.244-322.198c-1731.651,379.624-3294.89,289.099-4449.309-105.118
		c-1154.409-394.216-1788.092-80.791-3172.229-109.995c-1384.15-29.207-1556.43-504.212-2083.021-328.041
		C607.98,1671.935-2.335,2499.309-2.335,2499.309z"/>
	<path id="XMLID_1460_" opacity="0.08" fill="#FFFFFF" enable-background="new    " d="M13440,2010.672v-876.049
		c0,0-444.84,76.896-1039.557,0c-594.743-76.896-1278.057-775.778-3272.497-776.751c-1353.012,0-1917.562,407.845-2908.462,772.858
		c-990.881,365.033-1306.277,593.774-2390.61,593.774s-1506.778-593.774-2066.464-634.641
		C1202.714,1048.977,7.404,1508.408,7.404,1508.408v483.779c0,0,953.91-871.192,2685.551-491.568
		c1731.619,379.626,3304.617,658.005,4459.026,263.789c1154.431-394.217,1700.49,59.373,3084.64,30.167
		c1384.138-29.205,1532.086-780.645,2268.938-439.96C12908.527,1541.507,13440,2010.672,13440,2010.672z"/>
</g>
</svg>
